<svg
  width="64"
  height="64"
  fill="none"
  xmlns="http://www.w3.org/2000/svg"
>
  <style>
    path {
      fill: #000;
    }
    @media (prefers-color-scheme: dark) {
      path {
        fill: #fff;
      }
    }
  </style>
<g transform="translate(0.000000,64.000000) scale(0.100000,-0.100000)"
fill="#000000" stroke="none">
<path d="M127 522 c-69 -46 -87 -84 -87 -183 0 -87 14 -120 77 -186 42 -44 56
-53 86 -53 19 0 37 -6 40 -12 3 -9 15 -3 36 16 l31 30 30 -29 c23 -22 33 -26
42 -17 7 7 26 12 43 12 21 0 39 8 53 25 12 14 26 25 31 25 6 0 17 12 25 28 53
94 60 140 40 232 -11 45 -21 62 -56 92 -35 31 -69 48 -68 36 0 -6 28 -75 43
-110 19 -42 22 -104 7 -142 -5 -14 -31 -48 -58 -76 l-48 -50 -80 0 c-78 0 -80
1 -119 38 -74 70 -80 81 -80 152 0 38 7 75 15 90 12 20 39 88 40 98 0 7 -18 0
-43 -16z"/>
<path d="M255 451 c-93 -56 -83 -191 17 -229 74 -28 147 7 167 80 32 115 -85
210 -184 149z"/>
</g>
</svg>